<svg xmlns="http://www.w3.org/2000/svg" width="50" height="50" viewBox="0 0 50 50">
  <defs>
    <style>
      .cls-1 {
        fill: #111;
        fill-rule: evenodd;
      }
    </style>
  </defs>
  <path id="svg8.svg" class="cls-1" d="M54.941,34.329a8.229,8.229,0,0,1-14.81,0,0.68,0.68,0,0,1,.045-0.664,0.709,0.709,0,0,1,.595-0.32h0.545l0.358-.756a0.356,0.356,0,0,1,.469-0.168,0.343,0.343,0,0,1,.172.459l-0.22.465H52.913l-0.22-.465a0.343,0.343,0,0,1,.172-0.459,0.357,0.357,0,0,1,.469.168l0.357,0.756H54.3a0.707,0.707,0,0,1,.594.32A0.682,0.682,0,0,1,54.941,34.329Zm-12.94.4a6.793,6.793,0,0,0,11.069,0H42Zm10.1-3.105L51.5,30.368a0.343,0.343,0,0,1,.172-0.46,0.356,0.356,0,0,1,.468.168l0.594,1.256a0.343,0.343,0,0,1-.172.46A0.356,0.356,0,0,1,52.1,31.624ZM50.91,29.112l-0.594-1.256a0.343,0.343,0,0,1,.172-0.46,0.356,0.356,0,0,1,.469.168l0.594,1.256a0.343,0.343,0,0,1-.172.46A0.356,0.356,0,0,1,50.91,29.112ZM49.721,26.6l-0.594-1.256a0.343,0.343,0,0,1,.172-0.459,0.356,0.356,0,0,1,.468.168l0.594,1.256a0.343,0.343,0,0,1-.172.459A0.356,0.356,0,0,1,49.721,26.6ZM48.58,22.542L49.174,23.8a0.344,0.344,0,0,1-.172.46,0.356,0.356,0,0,1-.469-0.168L47.94,22.833a0.343,0.343,0,0,1,.172-0.46A0.356,0.356,0,0,1,48.58,22.542Zm-5.673,9.082a0.356,0.356,0,0,1-.469.168,0.344,0.344,0,0,1-.172-0.46l0.594-1.256a0.355,0.355,0,0,1,.469-0.168,0.343,0.343,0,0,1,.171.459ZM44.1,29.112a0.356,0.356,0,0,1-.468.168,0.343,0.343,0,0,1-.172-0.46l0.594-1.256a0.355,0.355,0,0,1,.468-0.168,0.344,0.344,0,0,1,.172.46Zm2.331-6.571a0.356,0.356,0,0,1,.469-0.168,0.344,0.344,0,0,1,.172.46l-0.595,1.256a0.356,0.356,0,0,1-.469.168,0.344,0.344,0,0,1-.172-0.46ZM45.284,26.6a0.355,0.355,0,0,1-.469.168,0.343,0.343,0,0,1-.171-0.459l0.594-1.256a0.356,0.356,0,0,1,.469-0.168,0.344,0.344,0,0,1,.172.46Zm3.261-5.171a1.987,1.987,0,0,1-.7.279,0.173,0.173,0,0,1-.232.049c-0.023,0-.043.012-0.066,0.014a0.694,0.694,0,0,1-.164-0.013,0.3,0.3,0,0,1-.2-0.013,0.309,0.309,0,0,1-.043-0.046,2.776,2.776,0,0,1-.765-0.338,1.566,1.566,0,0,1-.586-0.7A1.457,1.457,0,0,1,45.69,20.1a2.1,2.1,0,0,1,.175-0.8,4.469,4.469,0,0,1,.357-0.678c0.265-.425.567-0.819,0.763-1.132a2.353,2.353,0,0,0,.161-0.285,0.408,0.408,0,0,0-.084-0.039h0l-0.031.008a0.96,0.96,0,0,0-.148.07c-0.139.076-.345,0.216-0.617,0.368a4.964,4.964,0,0,1-2.54.627,5.315,5.315,0,0,1-1.736-.314,11.071,11.071,0,0,1-1.58-.714,32.449,32.449,0,0,0-2.94-1.544,5,5,0,0,0-1.882-.414,9.495,9.495,0,0,0-3.426.7V53.615h9.449a0.692,0.692,0,1,1,0,1.385H18.436a0.692,0.692,0,1,1,0-1.385h9.386V15.955a9.49,9.49,0,0,0-3.406-.7,6.254,6.254,0,0,0-2.843.864c-0.971.5-1.955,1.142-3.018,1.6a5.8,5.8,0,0,1-2.277.524,5.221,5.221,0,0,1-1.878-.317,6.1,6.1,0,0,1-1.1-.569,1.923,1.923,0,0,0-.332-0.18l-0.031-.008h0l-0.036.013c-0.008,0-.035.024-0.047,0.03,0.005,0.011.006,0.016,0.012,0.028a4.587,4.587,0,0,0,.293.474A13.265,13.265,0,0,1,14,19.01a2.413,2.413,0,0,1,.312,1.094,1.464,1.464,0,0,1-.108.559,1.5,1.5,0,0,1-.344.5,2.416,2.416,0,0,1-1,.527,0.306,0.306,0,0,1-.05.053,0.3,0.3,0,0,1-.2.013,0.692,0.692,0,0,1-.163.013c-0.023,0-.043-0.011-0.066-0.014a0.3,0.3,0,0,1-.2-0.012,0.3,0.3,0,0,1-.035-0.037,1.968,1.968,0,0,1-.7-0.28,1.789,1.789,0,0,1-.568-0.643,2.162,2.162,0,0,1-.242-0.984V19.746a0.705,0.705,0,0,1,1.409.056h0a0.876,0.876,0,0,0,.04.244,0.468,0.468,0,0,0,.17.252,0.62,0.62,0,0,0,.2.073,1.477,1.477,0,0,0,.346-0.146,0.185,0.185,0,0,0,.081-0.077L12.9,20.1a0.752,0.752,0,0,0-.062-0.256,2.928,2.928,0,0,0-.22-0.429c-0.193-.32-0.46-0.678-0.7-1.036a4.083,4.083,0,0,1-.416-0.752,1.493,1.493,0,0,1-.111-0.54,1.079,1.079,0,0,1,.095-0.447,1.067,1.067,0,0,1,.3-0.387,2.364,2.364,0,0,1,.543-0.341,1.487,1.487,0,0,1,1.1-.047,2.318,2.318,0,0,1,.38.173c0.224,0.125.411,0.254,0.621,0.37a3.508,3.508,0,0,0,1.843.447,3.891,3.891,0,0,0,1.268-.236A9.68,9.68,0,0,0,18.919,16a32.765,32.765,0,0,1,3.076-1.606,6.414,6.414,0,0,1,2.421-.519,10.645,10.645,0,0,1,3.406.6V12.951a2.124,2.124,0,0,1,1.432-1.992V9.549a2.339,2.339,0,0,1-1.622-2.207,2.388,2.388,0,1,1,3.033,2.244v1.355a2.124,2.124,0,0,1,1.493,2.01v1.527a10.669,10.669,0,0,1,3.426-.6,7.624,7.624,0,0,1,3.5,1.026c1.047,0.547,2.013,1.167,2.92,1.551a4.4,4.4,0,0,0,1.714.409,3.793,3.793,0,0,0,1.37-.225,4.729,4.729,0,0,0,.852-0.45,3.105,3.105,0,0,1,.622-0.315,1.484,1.484,0,0,1,1.1.047,2.39,2.39,0,0,1,.544.34,1.053,1.053,0,0,1,.4.834,1.712,1.712,0,0,1-.212.766,5.992,5.992,0,0,1-.383.627,12.786,12.786,0,0,0-.753,1.152,1.139,1.139,0,0,0-.158.466l0.005,0.043,0.027,0.034a1.247,1.247,0,0,0,.406.188,0.614,0.614,0,0,0,.192-0.071,0.39,0.39,0,0,0,.127-0.148,0.852,0.852,0,0,0,.084-0.347v0h0a0.705,0.705,0,0,1,1.41-.049V19.8a2.216,2.216,0,0,1-.107.662A1.847,1.847,0,0,1,48.545,21.43Zm-17.8,32.185V19.151H29.233V53.615h1.512ZM30.995,7.342a0.976,0.976,0,1,0-.976.957A0.968,0.968,0,0,0,30.995,7.342Zm-0.249,5.609a0.756,0.756,0,0,0-1.512,0v3.675h1.512V12.951Zm-1.512,4.367v1.14h1.512v-1.14H29.233ZM10.871,25.345L10.277,26.6a0.356,0.356,0,0,1-.469.168,0.343,0.343,0,0,1-.172-0.459l0.594-1.256a0.356,0.356,0,0,1,.469-0.168A0.343,0.343,0,0,1,10.871,25.345ZM9.683,27.856L9.089,29.112a0.356,0.356,0,0,1-.469.168,0.343,0.343,0,0,1-.171-0.46l0.594-1.256A0.355,0.355,0,0,1,9.512,27.4,0.343,0.343,0,0,1,9.683,27.856ZM8.495,30.368L7.9,31.624a0.356,0.356,0,0,1-.469.168,0.343,0.343,0,0,1-.171-0.46l0.594-1.256a0.356,0.356,0,0,1,.469-0.168A0.343,0.343,0,0,1,8.495,30.368ZM11,24.257a0.343,0.343,0,0,1-.171-0.46l0.594-1.256a0.356,0.356,0,0,1,.469-0.168,0.344,0.344,0,0,1,.171.46l-0.594,1.256A0.356,0.356,0,0,1,11,24.257Zm6.141,5.819,0.594,1.256a0.343,0.343,0,0,1-.172.46,0.355,0.355,0,0,1-.468-0.168L16.5,30.368a0.343,0.343,0,0,1,.171-0.46A0.356,0.356,0,0,1,17.138,30.076ZM15.95,27.565l0.594,1.256a0.343,0.343,0,0,1-.172.46,0.355,0.355,0,0,1-.468-0.168l-0.594-1.256a0.343,0.343,0,0,1,.171-0.46A0.356,0.356,0,0,1,15.95,27.565Zm-2.423-3.476-0.594-1.256a0.343,0.343,0,0,1,.171-0.46,0.356,0.356,0,0,1,.469.168L14.167,23.8a0.343,0.343,0,0,1-.172.46A0.356,0.356,0,0,1,13.527,24.089Zm1.234,0.965,0.594,1.256a0.343,0.343,0,0,1-.172.459,0.356,0.356,0,0,1-.469-0.168l-0.593-1.256a0.342,0.342,0,0,1,.171-0.459A0.356,0.356,0,0,1,14.761,25.053ZM7.306,32.879l-0.22.465H17.906l-0.22-.465a0.344,0.344,0,0,1,.172-0.459,0.356,0.356,0,0,1,.469.168l0.358,0.756h0.544a0.71,0.71,0,0,1,.6.32,0.682,0.682,0,0,1,.044.664,8.229,8.229,0,0,1-14.809,0A0.682,0.682,0,0,1,5.1,33.664a0.71,0.71,0,0,1,.595-0.32H6.309l0.358-.756a0.356,0.356,0,0,1,.469-0.168A0.343,0.343,0,0,1,7.306,32.879Zm5.156,4.7A6.765,6.765,0,0,0,18,34.729H6.928A6.764,6.764,0,0,0,12.463,37.584Z" transform="translate(-5 -5)"/>
</svg>

