<svg xmlns="http://www.w3.org/2000/svg" width="50" height="49" viewBox="0 0 50 49">
  <defs>
    <style>
      .cls-1 {
        fill: #111;
        fill-rule: evenodd;
      }
    </style>
  </defs>
  <path id="svg1.svg" class="cls-1" d="M51.57,31.366a11.833,11.833,0,0,1-16.554,0,11.432,11.432,0,0,1-3.428-8.174,11.306,11.306,0,0,1,.321-2.621L28.3,17.021A1.841,1.841,0,0,1,27.76,15.7a2.207,2.207,0,0,1,.678-1.563l2.842-2.8c-0.028-.025-0.055-0.053-0.083-0.078a0.74,0.74,0,0,1-.052-1.056,0.767,0.767,0,0,1,1.072-.051c0.046,0.041.09,0.086,0.136,0.127l1.78-1.753a2.274,2.274,0,0,1,1.586-.667,1.9,1.9,0,0,1,1.342.535L40.7,11.981a11.925,11.925,0,0,1,2.6-.3,11.757,11.757,0,0,1,8.271,3.377A11.409,11.409,0,0,1,51.57,31.366ZM35.988,9.451a0.363,0.363,0,0,0-.268-0.1,0.753,0.753,0,0,0-.514.229l-5.695,5.61a0.736,0.736,0,0,0-.233.506,0.354,0.354,0,0,0,.1.266l3.037,2.992a11.481,11.481,0,0,1,2.6-3.9,11.662,11.662,0,0,1,4.039-2.59ZM50.5,16.118a10.3,10.3,0,0,0-14.408,0,9.929,9.929,0,0,0,0,14.191,10.3,10.3,0,0,0,14.408,0c0.171-.168.324-0.347,0.48-0.524L49.814,28.64c-0.155.181-.281,0.378-0.454,0.548a8.671,8.671,0,0,1-12.131,0,8.356,8.356,0,0,1,0-11.949,8.67,8.67,0,0,1,12.131,0A8.307,8.307,0,0,1,50.3,28.058l1.16,1.142A9.9,9.9,0,0,0,50.5,16.118Zm-0.144,7.093A6.875,6.875,0,0,0,48.286,18.3a7.138,7.138,0,0,0-9.986,0,6.88,6.88,0,0,0,0,9.835,7.137,7.137,0,0,0,9.986,0A6.879,6.879,0,0,0,50.354,23.211ZM32.347,16.545a1.362,1.362,0,0,1-.959-0.392h0a1.32,1.32,0,0,1,0-1.89h0a1.37,1.37,0,0,1,1.918,0,1.32,1.32,0,0,1,0,1.889A1.364,1.364,0,0,1,32.347,16.545Zm0.423-1.753a0.6,0.6,0,0,0-.844,0h0a0.582,0.582,0,0,0,0,.833l-0.268.264,0.269-.264a0.6,0.6,0,0,0,.845,0A0.581,0.581,0,0,0,32.77,14.792ZM30.063,10.34q-0.587-.428-1.2-0.792A0.741,0.741,0,0,1,28.6,8.523a0.765,0.765,0,0,1,1.041-.257q0.68,0.4,1.327.874a0.74,0.74,0,0,1,.157,1.045A0.766,0.766,0,0,1,30.063,10.34ZM27.582,8.876q-0.657-.306-1.338-0.544a0.744,0.744,0,0,1-.46-0.955,0.761,0.761,0,0,1,.969-0.453q0.75,0.263,1.477.6a0.743,0.743,0,0,1,.362.995A0.764,0.764,0,0,1,27.582,8.876ZM24.858,7.92c-0.469-.115-0.944-0.207-1.421-0.276A0.75,0.75,0,0,1,22.8,6.8a0.758,0.758,0,0,1,.861-0.631q0.789,0.114,1.567.3a0.747,0.747,0,0,1,.553.906A0.76,0.76,0,0,1,24.858,7.92ZM22,7.507C21.764,7.5,21.53,7.49,21.3,7.49c-0.251,0-.5.007-0.752,0.019a0.747,0.747,0,1,1-.076-1.493Q20.884,6,21.3,6q0.384,0,.768.018A0.748,0.748,0,1,1,22,7.507ZM19.1,7.65q-0.716.1-1.421,0.279a0.76,0.76,0,0,1-.92-0.544,0.747,0.747,0,0,1,.552-0.906q0.776-.191,1.567-0.307A0.747,0.747,0,1,1,19.1,7.65ZM16.3,8.343q-0.68.239-1.338,0.546a0.763,0.763,0,0,1-1.01-.355,0.742,0.742,0,0,1,.361-1q0.725-.338,1.476-0.6a0.761,0.761,0,0,1,.969.452A0.745,0.745,0,0,1,16.3,8.343ZM13.684,9.561q-0.617.365-1.2,0.794a0.767,0.767,0,0,1-1.062-.153,0.74,0.74,0,0,1,.156-1.045Q12.221,8.682,12.9,8.28a0.764,0.764,0,0,1,1.04.256A0.74,0.74,0,0,1,13.684,9.561Zm-2.321,1.7q-0.264.236-.519,0.487t-0.506.523a0.767,0.767,0,0,1-1.072.052,0.739,0.739,0,0,1-.052-1.055q0.269-.293.557-0.576t0.571-.537a0.767,0.767,0,0,1,1.072.051A0.74,0.74,0,0,1,11.363,11.262ZM9.419,13.375q-0.435.577-.8,1.185a0.765,0.765,0,0,1-1.041.257,0.742,0.742,0,0,1-.26-1.025q0.408-.669.888-1.308a0.766,0.766,0,0,1,1.061-.154A0.74,0.74,0,0,1,9.419,13.375ZM7.57,14.823a0.743,0.743,0,0,1,.361.995q-0.31.648-.552,1.318a0.763,0.763,0,0,1-.97.453,0.744,0.744,0,0,1-.459-0.955,15.45,15.45,0,0,1,.61-1.455A0.763,0.763,0,0,1,7.57,14.823ZM6.407,17.6a0.748,0.748,0,0,1,.553.906,14.077,14.077,0,0,0-.282,1.4,0.756,0.756,0,0,1-.861.63,0.749,0.749,0,0,1-.64-0.848q0.116-.777.309-1.543A0.761,0.761,0,0,1,6.407,17.6Zm-0.59,2.943a0.752,0.752,0,0,1,.721.783q-0.018.355-.018,0.71t0.018,0.717a0.759,0.759,0,0,1-1.515.073C5.01,22.558,5,22.295,5,22.031s0.007-.522.02-0.782A0.754,0.754,0,0,1,5.817,20.538Zm0,3a0.756,0.756,0,0,1,.862.63q0.106,0.7.283,1.4a0.747,0.747,0,0,1-.553.906,0.76,0.76,0,0,1-.92-0.544q-0.194-.766-0.31-1.543A0.749,0.749,0,0,1,5.818,23.539Zm0.594,2.943a0.761,0.761,0,0,1,.969.452,14.271,14.271,0,0,0,.554,1.318,0.744,0.744,0,0,1-.362,1,0.764,0.764,0,0,1-1.01-.356,15.711,15.711,0,0,1-.61-1.454A0.743,0.743,0,0,1,6.412,26.481Zm1.8,5.105a15.733,15.733,0,0,1-.889-1.308,0.74,0.74,0,0,1,.26-1.026,0.764,0.764,0,0,1,1.04.256q0.37,0.607.806,1.185a0.74,0.74,0,0,1-.155,1.046A0.767,0.767,0,0,1,8.207,31.587Zm1.145,1.349C9.31,32.891,9.265,32.848,9.223,32.8a0.739,0.739,0,0,1,.051-1.056,0.767,0.767,0,0,1,1.072.05c0.026,0.028.053,0.054,0.079,0.082L13.51,28.84a2.272,2.272,0,0,1,1.587-.667,1.9,1.9,0,0,1,1.344.536l3.607,3.553a11.907,11.907,0,0,1,2.682-.318A11.766,11.766,0,0,1,31,35.32a11.409,11.409,0,0,1,0,16.305,11.831,11.831,0,0,1-16.553,0,11.314,11.314,0,0,1-3.129-10.7L7.682,37.335a1.842,1.842,0,0,1-.544-1.323,2.209,2.209,0,0,1,.678-1.563Zm6.171,17.633a10.279,10.279,0,0,0,13.281.944l-1.16-1.142a8.628,8.628,0,0,1-10.983-.923,8.361,8.361,0,0,1,0-11.949,8.67,8.67,0,0,1,12.13,0,8.36,8.36,0,0,1,0,11.949c-0.173.171-.373,0.3-0.557,0.449L29.4,51.042c0.18-.154.361-0.3,0.532-0.473a9.932,9.932,0,0,0,0-14.192,10.3,10.3,0,0,0-14.408,0A9.929,9.929,0,0,0,15.523,50.568Zm12.2-2.178a6.881,6.881,0,0,0,0-9.836,7.135,7.135,0,0,0-9.984,0,6.883,6.883,0,0,0,0,9.836A7.138,7.138,0,0,0,27.719,48.39ZM8.755,36.278L11.82,39.3a11.459,11.459,0,0,1,2.63-3.977,11.667,11.667,0,0,1,3.957-2.562l-3.039-2.993a0.37,0.37,0,0,0-.271-0.1,0.757,0.757,0,0,0-.515.229l-5.693,5.61a0.733,0.733,0,0,0-.233.507A0.354,0.354,0,0,0,8.755,36.278ZM14.6,31.353a1.372,1.372,0,0,1,.96.391l-0.269.265,0.269-.264a1.323,1.323,0,0,1,0,1.89,1.371,1.371,0,0,1-1.918,0,1.322,1.322,0,0,1,0-1.889A1.366,1.366,0,0,1,14.6,31.353Zm-0.423,1.753a0.605,0.605,0,0,0,.846,0,0.583,0.583,0,0,0,0-.833h0a0.605,0.605,0,0,0-.847,0A0.584,0.584,0,0,0,14.176,33.106Z" transform="translate(-5 -6)"/>
</svg>

