<svg xmlns="http://www.w3.org/2000/svg" width="50" height="48" viewBox="0 0 50 48">
  <defs>
    <style>
      .cls-1 {
        fill: #111;
        fill-rule: evenodd;
      }
    </style>
  </defs>
  <path id="svg10.svg" class="cls-1" d="M53.892,12.376a3.762,3.762,0,0,1-2.654,1.086,3.84,3.84,0,0,1-1.194-.191l-6.688,8.677a2.278,2.278,0,0,1,.235,1,2.31,2.31,0,0,1-.26,1.033l5.534,5.468a0.652,0.652,0,0,1,.2.485,0.66,0.66,0,0,1-.222.473l-2.388,2.111a0.674,0.674,0,0,1-.918-0.025l-0.5-.5-0.871.532a0.673,0.673,0,0,1-.926-0.224l-3.021-5.039L20.158,47.075a0.674,0.674,0,0,1-.286.167l-7.987,2.3a0.675,0.675,0,0,1-.659-0.167l-0.062-.062a0.657,0.657,0,0,1-.17-0.651l2.332-7.892a0.65,0.65,0,0,1,.169-0.282l20.069-19.83-5.178-3.032a0.666,0.666,0,0,1-.309-0.41,0.654,0.654,0,0,1,.082-0.5l0.539-.86-0.506-.5a0.653,0.653,0,0,1-.026-0.906L30.3,12.09a0.672,0.672,0,0,1,.969-0.027l5.536,5.47a2.283,2.283,0,0,1,2.055-.025L47.644,10.9a3.685,3.685,0,0,1,.906-3.8,3.81,3.81,0,0,1,5.343,0A3.7,3.7,0,0,1,53.892,12.376ZM14.56,41.306l-1.968,6.661,6.742-1.945L39.508,26.09l-0.066-.111-4.47.693a0.672,0.672,0,0,1-.575-0.185l-0.125-.124a0.651,0.651,0,0,1-.188-0.568l0.7-4.417-0.034-.019ZM48.306,12.06l-8.8,6.621,1.019,1.006a0.327,0.327,0,0,1,0,.466,0.337,0.337,0,0,1-.472,0l-1.213-1.2a0.674,0.674,0,0,1-.368-0.149h0v0l-0.026-.019-0.132-.077a1.042,1.042,0,0,0-.462-0.114,1.169,1.169,0,0,0-.732.289,0.674,0.674,0,0,1-.885-0.052l-4.886-4.828c-0.214-.213-0.385-0.381-0.522-0.516l-1.245,1.375,0.434,0.428a0.654,0.654,0,0,1,.1.814l-0.459.732,6.2,3.631a0.654,0.654,0,0,1,.319.669l-0.551,3.485,0.334-.331a0.336,0.336,0,0,1,.472,0,0.327,0.327,0,0,1,0,.466l-0.421.416,3.676-.57a0.669,0.669,0,0,1,.678.316l3.675,6.127,0.741-.453a0.673,0.673,0,0,1,.824.094l0.433,0.427,1.391-1.23L46.9,29.372l-4.885-4.826a0.653,0.653,0,0,1-.052-0.875,1.145,1.145,0,0,0,.292-0.724,1.063,1.063,0,0,0-.207-0.6l-0.006-.009h0a0.654,0.654,0,0,1-.151-0.363l-0.421-.416a0.327,0.327,0,0,1,0-.466,0.337,0.337,0,0,1,.472,0l0.227,0.224,6.7-8.693a0.651,0.651,0,0,1-.184-0.376A0.665,0.665,0,0,1,48.306,12.06Zm4.642-4.03a2.465,2.465,0,0,0-3.454,0,2.362,2.362,0,0,0-.708,1.689,2.4,2.4,0,0,0,.5,1.468,0.632,0.632,0,0,1,.122.341,0.653,0.653,0,0,1,.343.12,2.475,2.475,0,0,0,1.486.495,2.415,2.415,0,0,0,1.71-.7A2.392,2.392,0,0,0,52.948,8.03ZM37.843,23.36a0.337,0.337,0,0,1-.472,0,0.327,0.327,0,0,1,0-.466L38.7,21.579a0.337,0.337,0,0,1,.472,0,0.327,0.327,0,0,1,0,.466ZM18.3,43.015a0.673,0.673,0,0,1-.944,0,0.654,0.654,0,0,1,0-.933L30.234,29.355a0.673,0.673,0,0,1,.944,0,0.654,0.654,0,0,1,0,.933ZM42.313,10.643a10.8,10.8,0,0,1-1.766-2.878H19.454a10.777,10.777,0,0,1-1.767,2.878,14.362,14.362,0,0,1-1.715,1.732l-1.206-.908a13.455,13.455,0,0,0,1.6-1.581,8.531,8.531,0,0,0,1.75-2.976h0a0.772,0.772,0,0,1,.767-0.546H41.124a0.77,0.77,0,0,1,.765.546v0L41.9,6.947c0.009,0.032.026,0.083,0.05,0.153C42,7.239,42.081,7.447,42.2,7.71a10.107,10.107,0,0,0,1.368,2.1,13.393,13.393,0,0,0,1.663,1.659l-1.206.908A14.476,14.476,0,0,1,42.313,10.643ZM19.668,10.6a1.037,1.037,0,0,1,1.02-.744H39.314a1.037,1.037,0,0,1,1.022.751l0.008,0.03,0.031,0.1c0.038,0.105.1,0.267,0.2,0.474a8.118,8.118,0,0,0,1.094,1.676c0.2,0.24.439,0.492,0.7,0.748l-0.63.474c-0.249-.249-0.48-0.494-0.677-0.731a8.91,8.91,0,0,1-1.2-1.838c-0.111-.232-0.184-0.42-0.229-0.545V10.981c-0.021-.062-0.036-0.108-0.046-0.143h0v0l-0.01-.036V10.792a0.259,0.259,0,0,0-.261-0.164H20.687a0.258,0.258,0,0,0-.259.162l0,0.008a7.538,7.538,0,0,1-1.543,2.641c-0.183.215-.392,0.438-0.617,0.663l-0.632-.475c0.237-.234.459-0.465,0.647-0.686a7.47,7.47,0,0,0,1.33-2.17c0.038-.106.052-0.157,0.055-0.166h0Zm1.471,6.911a2.283,2.283,0,0,1,2.055.025l5.535-5.47a0.665,0.665,0,0,1,.417-0.18L27.42,13.79a1.631,1.631,0,0,0-.425,1.1,1.557,1.557,0,0,0,.132.624l-3.361,3.32a0.674,0.674,0,0,1-.885.052,1.169,1.169,0,0,0-.732-0.289,1.1,1.1,0,0,0-.612.2l-0.009.007h0a0.665,0.665,0,0,1-.368.15l-1.213,1.2a0.337,0.337,0,0,1-.472,0,0.327,0.327,0,0,1,0-.466l1.018-1.006-8.8-6.621a0.665,0.665,0,0,1-.379.181,0.651,0.651,0,0,1-.184.376l6.7,8.693,0.227-.224a0.337,0.337,0,0,1,.472,0,0.327,0.327,0,0,1,0,.466l-0.421.416a0.654,0.654,0,0,1-.151.363h0l-0.019.026-0.078.13a1.022,1.022,0,0,0-.115.456,1.145,1.145,0,0,0,.292.724,0.653,0.653,0,0,1-.052.875L13.1,29.372l-0.522.515,1.39,1.23L14.4,30.69a0.673,0.673,0,0,1,.824-0.094l0.741,0.453,3.675-6.127a0.669,0.669,0,0,1,.678-0.316L24,25.175l-0.421-.416a0.327,0.327,0,0,1,0-.466,0.336,0.336,0,0,1,.472,0l0.334,0.331-0.552-3.485a0.654,0.654,0,0,1,.319-0.669l3.578-2.1,0.147,0.108h0l1.144,0.669-2.582,1.511,2.856,2.822-0.944.933-3.1-3.061-0.034.019,0.7,4.417a0.654,0.654,0,0,1-.188.568l-0.125.124a0.672,0.672,0,0,1-.575.185l-4.47-.693-0.067.111,3.081,3.045-0.944.933-2.84-2.806L16.769,32.3a0.673,0.673,0,0,1-.926.224l-0.871-.532-0.5.5a0.674,0.674,0,0,1-.918.025l-2.388-2.111a0.66,0.66,0,0,1-.222-0.473,0.652,0.652,0,0,1,.2-0.485L16.67,23.98a2.307,2.307,0,0,1-.259-1.033,2.282,2.282,0,0,1,.235-1L9.957,13.271a3.841,3.841,0,0,1-1.194.191,3.762,3.762,0,0,1-2.654-1.086,3.7,3.7,0,0,1,0-5.279,3.81,3.81,0,0,1,5.343,0,3.672,3.672,0,0,1,1.1,2.622,3.727,3.727,0,0,1-.193,1.18ZM10.507,8.03a2.464,2.464,0,0,0-3.454,0,2.406,2.406,0,0,0,1.71,4.113,2.475,2.475,0,0,0,1.487-.495,0.652,0.652,0,0,1,.343-0.12,0.631,0.631,0,0,1,.123-0.341,2.4,2.4,0,0,0,.5-1.468A2.363,2.363,0,0,0,10.507,8.03Zm0.672,19.976-0.712.7a27.181,27.181,0,0,1-.2-3.286V25.41a50.379,50.379,0,0,1,.734-7.59,0.98,0.98,0,0,1,.618-0.754L12.115,17.7c-0.059.02-.111,0.043-0.172,0.063a0.215,0.215,0,0,0-.16.163,49.525,49.525,0,0,0-.726,7.49v0C11.056,26.256,11.1,27.12,11.179,28.005Zm0.884,4.525a21.506,21.506,0,0,0,2.428,5.292L14.605,38l-0.566.56c-0.07-.108-0.146-0.215-0.214-0.322a22.268,22.268,0,0,1-2.84-6.656Zm0.3,7.965-0.19.647c-0.39-.528-0.759-1.058-1.1-1.59A27.5,27.5,0,0,1,6.905,24.493a59.615,59.615,0,0,1,.872-9.011,0.724,0.724,0,0,1,.509-0.568c0.46-.151.895-0.309,1.313-0.473l0.9,1.171c-0.4.16-.8,0.316-1.231,0.464a55.431,55.431,0,0,0-.8,8.416,26.215,26.215,0,0,0,3.968,14.369c0.163,0.256.335,0.511,0.51,0.767l-0.166.164A1.653,1.653,0,0,0,12.365,40.5Zm7.791,7.7a1.672,1.672,0,0,0,.709-0.416l0.186-.184A51.394,51.394,0,0,0,30,52.525a51.433,51.433,0,0,0,8.948-4.934l0.184,0.181,0,0a1.679,1.679,0,0,0,.709.416h0L40.4,48.351a52.457,52.457,0,0,1-10.051,5.585l-0.069.016-0.111.025L30,54l-0.168-.022-0.111-.025-0.069-.016A52.418,52.418,0,0,1,19.6,48.351l0.552-.159h0Zm9.4,2.235a46,46,0,0,1-7.377-3.945l0.567-.56A45.252,45.252,0,0,0,29.836,49.7l0.018,0h0l0.074,0.017L30,49.733l0.069-.01,0.076-.017h0l0.017,0a45.4,45.4,0,0,0,7.1-3.781l0.566,0.559a45.892,45.892,0,0,1-7.377,3.945l-0.033.014-0.035.008-0.059.014h0l-0.113.026-0.02,0L30,50.515l-0.051-.007-0.16-.021-0.018,0-0.094-.022h0l-0.093-.02Zm10.291-3.351L30.709,38.05l0.944-.933,9.015,8.906,6.742,1.945-1.968-6.661L36.427,32.4l0.944-.933,9.135,9.026a0.648,0.648,0,0,1,.169.282l2.332,7.892a0.657,0.657,0,0,1-.17.651l-0.063.062a0.676,0.676,0,0,1-.659.167l-7.987-2.3A0.665,0.665,0,0,1,39.843,47.075Zm6.118-8.519L45.394,38l0.116-.174a21.49,21.49,0,0,0,2.427-5.291l1.077-.952a22.293,22.293,0,0,1-2.839,6.655C46.108,38.341,46.032,38.448,45.961,38.556Zm5.753-23.642a0.726,0.726,0,0,1,.508.568,59.592,59.592,0,0,1,.873,9.011,27.5,27.5,0,0,1-4.174,15.06c-0.336.532-.705,1.062-1.1,1.59l-0.19-.645a1.635,1.635,0,0,0-.423-0.7l-0.167-.164c0.176-.255.348-0.511,0.51-0.767a26.206,26.206,0,0,0,3.969-14.369,55.249,55.249,0,0,0-.8-8.416c-0.428-.148-0.835-0.3-1.23-0.464l0.9-1.171C50.82,14.6,51.254,14.763,51.715,14.914Zm-3.5,3.016a0.219,0.219,0,0,0-.16-0.163c-0.061-.02-0.112-0.043-0.172-0.062l0.492-.639a0.982,0.982,0,0,1,.617.754,50.12,50.12,0,0,1,.734,7.6v0.019a27.189,27.189,0,0,1-.194,3.273L48.821,28c0.085-.884.124-1.748,0.124-2.581v0A49.54,49.54,0,0,0,48.219,17.93Z" transform="translate(-5 -6)"/>
</svg>

