<svg xmlns="http://www.w3.org/2000/svg" width="50" height="40" viewBox="0 0 50 40">
  <defs>
    <style>
      .cls-1 {
        fill: #111;
        fill-rule: evenodd;
      }
    </style>
  </defs>
  <path id="svg3.svg" class="cls-1" d="M54.746,16.419a0.732,0.732,0,0,1-.593.631l-5.126,2.1A13.8,13.8,0,0,1,35.642,42.8c-0.076.091-.16,0.176-0.239,0.265L35.03,41.2A14.243,14.243,0,0,0,33.8,22.69a9.515,9.515,0,0,0-1.164,1.266,12.49,12.49,0,0,1,1.914,14.831l-0.5-2.494a10.99,10.99,0,0,0-2.2-11.008l-0.434-2.17a10.988,10.988,0,0,1,19.333,3.531,11.021,11.021,0,0,1-10.56,14.146,10.921,10.921,0,0,1-2.879-.395q-0.336.6-.722,1.16a12.307,12.307,0,0,0,15.927-11.79,12.308,12.308,0,0,0-15.8-11.848,12.229,12.229,0,0,0-5.629,3.541l-0.588-2.937c0.334,0.163.664,0.334,0.986,0.52a13.739,13.739,0,0,1,15.127-1.518l-0.972-5.235a0.736,0.736,0,0,1,.063-0.453l0.032-.056a0.745,0.745,0,0,1,.14-0.173l0.021-.026,1.717-1.417a0.739,0.739,0,0,1,.823-0.079l2.921,1.6,0,0,3.27,1.785A0.746,0.746,0,0,1,55,14.2ZM40.185,39.31a9.552,9.552,0,1,0-5.21-17.533,15.686,15.686,0,0,1,3.014,17.271A9.431,9.431,0,0,0,40.185,39.31Zm7.186-25.76,0.6,3.222,0.654-1.2a0.739,0.739,0,1,1,1.3.708l-0.636,1.169,2.981-1.223Zm3.192-.612,0,0-2.4-1.309-0.487.4,5.73,3.131,0.073-.629ZM30.908,27.246a0.318,0.318,0,1,1-.624.126L29.908,25.5a0.318,0.318,0,1,1,.624-0.126Zm-1-3.378a0.319,0.319,0,0,1-.375-0.25l-0.376-1.877a0.318,0.318,0,1,1,.624-0.126l0.375,1.877A0.319,0.319,0,0,1,29.907,23.868Zm-0.751-3.754a0.318,0.318,0,0,1-.375-0.25l-0.376-1.877a0.319,0.319,0,1,1,.624-0.126l0.376,1.877A0.32,0.32,0,0,1,29.156,20.114ZM28.4,16.36a0.319,0.319,0,0,1-.375-0.25l-0.376-1.877a0.318,0.318,0,1,1,.624-0.126l0.376,1.877A0.319,0.319,0,0,1,28.4,16.36ZM24.9,29.755a12.361,12.361,0,0,0,4.562,9.582,11.055,11.055,0,0,0,.731-1.1,11.02,11.02,0,0,1-1.748-15.122l0.434,2.17-0.039-.049a9.547,9.547,0,0,0,2.033,11.64c0.079-.191.14-0.388,0.209-0.583l0.5,2.494A12.469,12.469,0,0,1,8.713,36.2,12.513,12.513,0,0,1,20.7,20.144a12.436,12.436,0,0,1,5.507,1.3A13.765,13.765,0,0,1,27.359,20.1a14.245,14.245,0,1,0,4.7,21.1l0.374,1.867a15.72,15.72,0,1,1-4.91-24.547L28.11,21.46A12.388,12.388,0,0,0,24.9,29.755Zm-4.2-8.129a11.039,11.039,0,1,0,7.789,18.83,13.8,13.8,0,0,1-3.11-17.778A10.972,10.972,0,0,0,20.7,21.626Zm10.336,9.5-0.375-1.877a0.318,0.318,0,1,1,.624-0.126L31.659,31A0.318,0.318,0,1,1,31.035,31.126Zm1,1.751,0.376,1.877a0.318,0.318,0,1,1-.624.126L31.41,33A0.318,0.318,0,1,1,32.035,32.877Zm0.377,3.5a0.319,0.319,0,0,1,.375.25l0.376,1.877a0.318,0.318,0,1,1-.624.126l-0.376-1.877A0.319,0.319,0,0,1,32.411,36.381Zm0.751,3.754a0.318,0.318,0,0,1,.375.25l0.376,1.877a0.318,0.318,0,1,1-.624.126L32.913,40.51A0.319,0.319,0,0,1,33.163,40.135Zm0.752,3.754a0.319,0.319,0,0,1,.375.25l0.376,1.877a0.318,0.318,0,1,1-.624.126l-0.375-1.877A0.319,0.319,0,0,1,33.914,43.888Zm0.751,3.754a0.318,0.318,0,0,1,.375.25l0.348,1.736a0.318,0.318,0,1,1-.624.126l-0.348-1.736A0.319,0.319,0,0,1,34.665,47.642Z" transform="translate(-5 -10)"/>
</svg>

