<svg xmlns="http://www.w3.org/2000/svg" width="49.969" height="32" viewBox="0 0 49.969 32">
  <defs>
    <style>
      .cls-1 {
        fill: #111;
        fill-rule: evenodd;
      }
    </style>
  </defs>
  <path id="svg7.svg" class="cls-1" d="M54.564,16.352s-4.034,1.681-6.252,2.6c0.12,0.284.25,0.611,0.392,0.983,0.277,0.727.591,1.611,0.928,2.595,0.674,1.968,1.439,4.338,2.16,6.624,1.443,4.572,2.709,8.81,2.71,8.812a0.7,0.7,0,0,1-.483.873,0.714,0.714,0,0,1-.886-0.476l-0.17-.565-0.26-.863a0.707,0.707,0,0,1-.3.122h0l-0.015,0-0.092.016c-0.089.017-.238,0.049-0.46,0.1-0.442.108-1.172,0.306-2.295,0.659a0.723,0.723,0,0,1-.607-0.082,0.7,0.7,0,0,1-.319-0.514,8.638,8.638,0,0,0-.2-0.992c-0.07-.278-0.159-0.6-0.256-0.95-0.009,0-.016.007-0.026,0.007A8.658,8.658,0,0,0,44.4,36.489a7.2,7.2,0,0,0-1.492,1.168c0.018,0.023.043,0.05,0.06,0.073l0.014,0.019a2.251,2.251,0,0,1,.434,1.32,2.454,2.454,0,0,1-.814,1.783,2.736,2.736,0,0,1-2.587.654,2.04,2.04,0,0,1-.307.852,6.027,6.027,0,0,1-.625.82,3.162,3.162,0,0,1-1.076.782,2.582,2.582,0,0,1-1.023.209,3,3,0,0,1-.852-0.133,2.192,2.192,0,0,1-.125.364,3.021,3.021,0,0,1-.934,1.09,2.761,2.761,0,0,1-1.684.571,3.433,3.433,0,0,1-1.329-.292,2.025,2.025,0,0,1-.154.315,1.85,1.85,0,0,1-.53.548,2.073,2.073,0,0,1-1.182.336,3.978,3.978,0,0,1-1.371-.279l-0.047-.019c-0.318-.145-0.58-0.275-0.816-0.4a0.671,0.671,0,0,1-.091.074A5.075,5.075,0,0,1,25.522,47a2.807,2.807,0,0,1-.808-0.109,1.684,1.684,0,0,1-.679-0.373,1.163,1.163,0,0,1-.314-0.479l-0.013-.043a3.645,3.645,0,0,1-.083-0.5,2.325,2.325,0,0,1-.28.023,2.846,2.846,0,0,1-1.184-.27,2.547,2.547,0,0,1-1.045-.87L21.1,44.355a3.9,3.9,0,0,1-.459-1.1,3.058,3.058,0,0,1-1.066.21,2.23,2.23,0,0,1-.793-0.139,2.05,2.05,0,0,1-.762-0.5,1.96,1.96,0,0,1-.463-0.86,3.735,3.735,0,0,1-.116-0.953c-0.136.035-.356,0.088-0.645,0.145a9.134,9.134,0,0,1-1.681.182,4.35,4.35,0,0,1-.9-0.084,2.28,2.28,0,0,1-.866-0.362,1.6,1.6,0,0,1-.466-0.514,1.755,1.755,0,0,1-.235-0.868,1.891,1.891,0,0,1,.308-1.007,3.059,3.059,0,0,1,.574-0.662l0.038-.031c-0.451-.292-0.9-0.562-1.323-0.785-0.546-.291-1.025-0.514-1.377-0.669L10.144,39.67a0.71,0.71,0,0,1-.33.454,0.729,0.729,0,0,1-.562.073L6.528,39.43l-0.109.479a0.712,0.712,0,0,1-.851.532,0.7,0.7,0,0,1-.54-0.839L9.711,18.943,5.619,17.868a0.7,0.7,0,0,1-.5-0.86,0.714,0.714,0,0,1,.873-0.5l4.753,1.25a0.7,0.7,0,0,1,.513.832L10.81,20.546,13.5,21.191a0.7,0.7,0,0,1,.529.832l-0.274,1.244a10.484,10.484,0,0,0,2.877,1.495,8.434,8.434,0,0,0,2.609.4,15.107,15.107,0,0,0,2.235-.2,15.633,15.633,0,0,1,2.251-.155c0.568,0,1.052.027,1.4,0.054l0.008-.066a2.756,2.756,0,0,1,.5-1.131,2.12,2.12,0,0,1,1.108-.721,3.515,3.515,0,0,1,.976-0.122,6.412,6.412,0,0,1,.652.036,13.015,13.015,0,0,0,1.344.062c1.079,0,2.107-.092,2.336-0.114l0.048,0h0.01a1.809,1.809,0,0,1,.185-0.007,4.2,4.2,0,0,1,1.157.175,4.661,4.661,0,0,1,1.714.926c0.143,0.121.331,0.256,0.5,0.383l0.044-.006c0.176-.027.429-0.074,0.718-0.146a5.866,5.866,0,0,0,1.849-.78,1.563,1.563,0,0,1,.888-0.3,1.213,1.213,0,0,1,.67.2,1.356,1.356,0,0,1,.426.463,2.246,2.246,0,0,1,.264,1.125,3.9,3.9,0,0,1-.357,1.58,4.353,4.353,0,0,1-.425.723,13.548,13.548,0,0,0,5.082-2.1c-0.287-.829-0.526-1.514-0.68-1.951-0.122-.348-0.191-0.543-0.191-0.544a0.7,0.7,0,0,1,.312-0.837c0.005,0,.494-0.286,1.182-0.647,0.533-.28,1.183-0.595,1.829-0.88-0.223-.574-0.416-1.025-0.543-1.265a0.7,0.7,0,0,1-.038-0.564,0.708,0.708,0,0,1,.4-0.409c1.439-.592,4.616-1.913,6.113-2.536l0.811-.338a0.715,0.715,0,0,1,.934.373A0.7,0.7,0,0,1,54.564,16.352ZM25.03,45.277c0.009,0.1.021,0.176,0.034,0.243a1.222,1.222,0,0,0,.458.072,3.129,3.129,0,0,0,.95-0.178,0.68,0.68,0,0,1-.1-0.318V45.048c0-.035,0-0.086-0.01-0.152-0.009-.131-0.026-0.317-0.054-0.529a5.1,5.1,0,0,0-.331-1.315,0.992,0.992,0,0,0-.292-0.423l-0.071-.022H25.611l-0.066.014-0.076.057a1.2,1.2,0,0,0-.237.425A5.025,5.025,0,0,0,25,44.7C25,44.911,25.015,45.112,25.03,45.277Zm-2.72-1.671a1.124,1.124,0,0,0,.459.371,1.421,1.421,0,0,0,.576.136,0.429,0.429,0,0,0,.142-0.018,0.68,0.68,0,0,1,.127-0.13c0.019-.207.044-0.417,0.084-0.625a4.941,4.941,0,0,1,.168-0.636c0-.007,0-0.014,0-0.021h0V42.671l0-.053c0-.048,0-0.12,0-0.209a5.771,5.771,0,0,0-.077-0.96,1.987,1.987,0,0,0-.292-0.815,0.288,0.288,0,0,0-.173-0.127L23.261,40.5a0.785,0.785,0,0,0-.36.111,1.689,1.689,0,0,0-.456.385,2.152,2.152,0,0,0-.5,1.378A2.357,2.357,0,0,0,22.311,43.606ZM18.934,41.6a0.527,0.527,0,0,0,.357.416,0.8,0.8,0,0,0,.284.047,1.76,1.76,0,0,0,.59-0.12,2.549,2.549,0,0,0,.389-0.181l0.021-.013h0c0.009-.006.02-0.006,0.03-0.011a3.5,3.5,0,0,1,.281-0.87,0.677,0.677,0,0,1-.106-0.42v0l0-.023,0.007-.1c0-.085.009-0.209,0.009-0.356a5.212,5.212,0,0,0-.049-0.751,2.469,2.469,0,0,0-.185-0.687,0.755,0.755,0,0,0-.16-0.235,0.276,0.276,0,0,0-.212-0.075H20.16a0.615,0.615,0,0,0-.373.184,2.189,2.189,0,0,0-.461.642,4.626,4.626,0,0,0-.46,1.948A2.4,2.4,0,0,0,18.934,41.6Zm-4.8-1.9,0.058,0.061a0.7,0.7,0,0,0,.181.085,2.521,2.521,0,0,0,.742.091,6.483,6.483,0,0,0,.918-0.079c-0.2-.172-0.4-0.367-0.607-0.586h0a8.87,8.87,0,0,0-.661-0.594c-0.031.022-.054,0.034-0.088,0.059a2.042,2.042,0,0,0-.5.507,0.518,0.518,0,0,0-.1.27A0.36,0.36,0,0,0,14.134,39.695ZM10.5,21.918L6.838,38.063c0.011,0,.022,0,0.033,0L8.912,38.64l3.573-16.245ZM23.723,26.21a14.269,14.269,0,0,0-2.041.139,16.373,16.373,0,0,1-2.445.219,9.9,9.9,0,0,1-3.049-.47,11.526,11.526,0,0,1-2.764-1.343l-2.244,10.2c0.355,0.149.93,0.4,1.64,0.776a15.129,15.129,0,0,1,3.625,2.552L16.459,38.3A7.05,7.05,0,0,0,17.7,39.356c0.031-.106.047-0.215,0.084-0.319A4.071,4.071,0,0,1,18.83,37.36a2.041,2.041,0,0,1,1.255-.546l0.107,0a1.721,1.721,0,0,1,1.179.447,2.275,2.275,0,0,1,.587.918,4.592,4.592,0,0,1,.241,1.212l0.005,0a2.2,2.2,0,0,1,1.058-.29,1.845,1.845,0,0,1,.357.036,1.712,1.712,0,0,1,1.019.655,2.809,2.809,0,0,1,.453.948,4.923,4.923,0,0,1,.115.525,1.632,1.632,0,0,1,.361-0.055h0.05a1.562,1.562,0,0,1,.85.251,1.97,1.97,0,0,1,.555.555,4.116,4.116,0,0,1,.542,1.317,8.815,8.815,0,0,1,.2,1.18c0.038,0.029.053,0.045,0.114,0.088a9.87,9.87,0,0,0,1.461.786,2.563,2.563,0,0,0,.855.185,0.658,0.658,0,0,0,.363-0.081,0.456,0.456,0,0,0,.159-0.174,0.912,0.912,0,0,0,.1-0.292c-0.054-.048-0.108-0.1-0.167-0.154-0.151-.144-0.323-0.318-0.513-0.514-0.377-.392-0.817-0.867-1.239-1.329-0.842-.926-1.608-1.8-1.61-1.8a0.7,0.7,0,0,1,.073-0.99,0.72,0.72,0,0,1,1.006.07l0.252,0.284c0.158,0.178.381,0.429,0.637,0.715,0.513,0.572,1.163,1.289,1.705,1.861,0.36,0.379.68,0.7,0.846,0.845l0.074,0.06a4.211,4.211,0,0,0,.686.393,2.079,2.079,0,0,0,.826.2,1.313,1.313,0,0,0,.82-0.284,1.613,1.613,0,0,0,.511-0.577,0.916,0.916,0,0,0,.1-0.407c0-.01,0-0.015,0-0.025a17.334,17.334,0,0,1-2.921-2.706C31,39.65,30.37,38.812,30.363,38.8a0.7,0.7,0,0,1,.151-0.983,0.719,0.719,0,0,1,1,.149L31.536,38l0.079,0.1c0.069,0.09.171,0.22,0.3,0.381,0.258,0.322.623,0.766,1.05,1.247a15.045,15.045,0,0,0,2.877,2.634,2.2,2.2,0,0,0,1.141.4,1.135,1.135,0,0,0,.457-0.094,1.553,1.553,0,0,0,.4-0.259,3.882,3.882,0,0,0,.664-0.814,0.683,0.683,0,0,0,.121-0.386,0.865,0.865,0,0,0-.115-0.408h0a0.678,0.678,0,0,1-.071-0.164c-0.381-.291-0.778-0.61-1.195-0.969-0.619-.533-1.255-1.113-1.829-1.65-1.148-1.073-2.049-1.975-2.052-1.979a0.7,0.7,0,0,1,.007-0.994,0.722,0.722,0,0,1,1.009.008l0.087,0.088,0.252,0.247c0.215,0.212.523,0.512,0.886,0.86,0.727,0.7,1.681,1.588,2.579,2.36a20.165,20.165,0,0,0,1.62,1.285,1.555,1.555,0,0,0,.89.3,1.369,1.369,0,0,0,.925-0.365,1.066,1.066,0,0,0,.366-0.76,0.855,0.855,0,0,0-.172-0.5,25.134,25.134,0,0,0-2.238-2.4c-0.966-.94-2.087-1.966-3.2-2.953-2.226-1.975-4.416-3.8-5.278-4.509l-0.324-.266c-0.139.011-.278,0.022-0.409,0.022a5.373,5.373,0,0,1-1.305-.166,3.752,3.752,0,0,1-.339.6,3.181,3.181,0,0,1-1.7,1.218,4.175,4.175,0,0,1-1.209.17,6.344,6.344,0,0,1-2.277-.457,0.7,0.7,0,0,1-.4-0.458,0.7,0.7,0,0,1,.11-0.6l0.01-.014,0.035-.046,0.128-.183c0.11-.159.263-0.387,0.432-0.655a13.565,13.565,0,0,0,.882-1.619C24.449,26.225,24.119,26.21,23.723,26.21Zm15.335-1.7a6.854,6.854,0,0,1-1.909.866L37.317,25.5c0.395,0.295.779,0.616,1.15,0.952a2.924,2.924,0,0,0,.391-0.617,2.511,2.511,0,0,0,.235-1.009A1.278,1.278,0,0,0,39.058,24.511Zm6.237,1.9a14.4,14.4,0,0,1-6.236,2.241,0.714,0.714,0,0,1-.629-0.263,10.852,10.852,0,0,0-1.972-1.773c-0.762-.567-1.562-1.105-2.224-1.664a3.247,3.247,0,0,0-1.19-.645,2.78,2.78,0,0,0-.753-0.116H32.236c-0.064.006-1.23,0.124-2.523,0.125a14.738,14.738,0,0,1-1.5-.069,4.758,4.758,0,0,0-.5-0.029,1.661,1.661,0,0,0-.75.133,0.641,0.641,0,0,0-.3.3,1.788,1.788,0,0,0-.149.436h0a4.579,4.579,0,0,1-.341,1.4,11.979,11.979,0,0,1-.729,1.471c-0.17.3-.337,0.565-0.488,0.8a4.241,4.241,0,0,0,.861.1,2.39,2.39,0,0,0,1.138-.252,1.894,1.894,0,0,0,.847-0.988,4.5,4.5,0,0,0,.306-1.455,0.713,0.713,0,0,1,1.423.09c-0.015.236-.045,0.455-0.079,0.669a3.875,3.875,0,0,0,.913.114,3.177,3.177,0,0,0,1.569-.4,0.718,0.718,0,0,1,.972.264,0.7,0.7,0,0,1-.269.958c-0.068.038-.135,0.061-0.2,0.095,1.557,1.293,5.053,4.235,7.711,6.774,0.683,0.653,1.3,1.27,1.827,1.839a8.678,8.678,0,0,1,1.209-.99,10.044,10.044,0,0,1,4.576-1.647c-0.329-1.085-.719-2.309-1.128-3.551C46.179,29.017,45.712,27.636,45.294,26.416Zm0.193-3.789c0.305,0.869.939,2.682,1.644,4.766,0.983,2.909,2.092,6.3,2.612,8.308,0.053,0.208.093,0.382,0.134,0.559a17.7,17.7,0,0,1,2.334-.6,0.674,0.674,0,0,1,.108.007c-0.373-1.224-.842-2.751-1.36-4.413-1.049-3.362-2.28-7.2-3.2-9.77C46.908,21.867,46.024,22.332,45.488,22.626Z" transform="translate(-5.031 -15)"/>
</svg>

