<svg xmlns="http://www.w3.org/2000/svg" width="50" height="37" viewBox="0 0 50 37">
  <defs>
    <style>
      .cls-1 {
        fill: #111;
        fill-rule: evenodd;
      }
    </style>
  </defs>
  <path id="svg9.svg" class="cls-1" d="M46.728,28.394a8.173,8.173,0,0,1-4.68-1.477V48.31a0.7,0.7,0,0,1-1.392,0V25.9a0.657,0.657,0,0,1,.033-0.165c-0.086-.093-0.179-0.18-0.261-0.277H30.155A0.672,0.672,0,0,1,30,25.433a0.672,0.672,0,0,1-.155.031H19.573c-0.082.1-.174,0.184-0.261,0.276a0.655,0.655,0,0,1,.034.165V48.31a0.7,0.7,0,0,1-1.393,0V26.918A8.212,8.212,0,1,1,13.274,12H46.728A8.2,8.2,0,1,1,46.728,28.394ZM39.46,24.085a8.163,8.163,0,0,1-.508-1.125,0.67,0.67,0,0,1-.167-0.377c0-.043,0-0.086-0.005-0.129a3.437,3.437,0,0,1-.721,1.577c-0.017.019-.039,0.035-0.058,0.053H39.46ZM36.6,23.914a0.314,0.314,0,0,1,.075.031,0.261,0.261,0,0,1,.1-0.031,0.978,0.978,0,0,0,.762-0.343,2.4,2.4,0,0,0,.472-0.915,5.981,5.981,0,0,0,.221-1.29H35.147a7.008,7.008,0,0,0,.092.737,3.067,3.067,0,0,0,.6,1.468A0.977,0.977,0,0,0,36.6,23.914Zm-4.461,0a0.327,0.327,0,0,1,.276.172h2.964c-0.018-.018-0.04-0.033-0.057-0.052a3.045,3.045,0,0,1-.622-1.177,6.729,6.729,0,0,1-.253-1.49H30.686a6.975,6.975,0,0,0,.092.735,3.049,3.049,0,0,0,.6,1.469A0.978,0.978,0,0,0,32.144,23.914Zm-2.3.172a0.672,0.672,0,0,1,.155.031,0.672,0.672,0,0,1,.155-0.031h0.768c-0.018-.018-0.04-0.034-0.057-0.053a3.065,3.065,0,0,1-.622-1.177A6.565,6.565,0,0,1,30,21.5c-0.018.218-.044,0.458-0.092,0.721a3.687,3.687,0,0,1-.772,1.808c-0.017.019-.039,0.034-0.057,0.053h0.767Zm-2.163-.172a0.26,0.26,0,0,1,.1.03,0.316,0.316,0,0,1,.074-0.03,0.978,0.978,0,0,0,.762-0.343,2.385,2.385,0,0,0,.471-0.914,6.005,6.005,0,0,0,.222-1.29H26.225a6.885,6.885,0,0,0,.092.735,3.07,3.07,0,0,0,.6,1.47A0.978,0.978,0,0,0,27.684,23.914Zm-4.462,0a0.328,0.328,0,0,1,.276.172h2.964c-0.018-.018-0.04-0.034-0.057-0.053a3.069,3.069,0,0,1-.622-1.178,6.758,6.758,0,0,1-.253-1.489H21.764a6.983,6.983,0,0,0,.091.735,3.089,3.089,0,0,0,.6,1.47A0.981,0.981,0,0,0,23.222,23.914ZM22,24.085c-0.018-.018-0.04-0.034-0.057-0.053a3.048,3.048,0,0,1-.622-1.178c-0.042-.14-0.069-0.278-0.1-0.417,0,0.049,0,.1-0.006.146a0.668,0.668,0,0,1-.165.375,8.163,8.163,0,0,1-.509,1.127H22Zm-1.1-4.1h8.944a0.677,0.677,0,0,1,.155.031,0.677,0.677,0,0,1,.155-0.031H39.1a7.029,7.029,0,0,1,.857-1.781H20.045A7.026,7.026,0,0,1,20.9,19.987Zm19.57-2.47a6.992,6.992,0,0,1,1.138-1.034H18.393a6.992,6.992,0,0,1,1.138,1.034H40.472ZM51.6,15.377a6.891,6.891,0,0,0-4.867-2H13.274a6.9,6.9,0,0,0-4.868,2,6.772,6.772,0,0,0,0,9.641A6.916,6.916,0,0,0,19.825,22.3c0-.008.009-0.013,0.011-0.02,0-.08.01-0.161,0.01-0.241a5.607,5.607,0,0,0-4.71-5.5,4.441,4.441,0,0,0-.732-0.061,4.366,4.366,0,0,0-4.31,3.617,3.413,3.413,0,0,0-.047.558,3.341,3.341,0,0,0,2.8,3.278,2.592,2.592,0,0,0,.427.035,2.545,2.545,0,0,0,2.513-2.108,1.875,1.875,0,0,0-1.56-2.169A1.41,1.41,0,0,0,14,19.665a1.379,1.379,0,0,0-1.36,1.142,0.7,0.7,0,0,1-1.374-.229A2.768,2.768,0,0,1,14,18.286a2.859,2.859,0,0,1,.463.038,3.272,3.272,0,0,1,2.748,3.213,3.354,3.354,0,0,1-.046.544,3.935,3.935,0,0,1-3.886,3.258,4.057,4.057,0,0,1-.658-0.054,4.7,4.7,0,0,1-3.9-5.424A5.754,5.754,0,0,1,14.4,15.093a5.853,5.853,0,0,1,.963.08,6.961,6.961,0,0,1,1.879.62h25.51a6.963,6.963,0,0,1,1.88-.62,5.846,5.846,0,0,1,.962-0.08,5.755,5.755,0,0,1,5.683,4.767,4.822,4.822,0,0,1,.066.787,4.722,4.722,0,0,1-3.966,4.637,4.028,4.028,0,0,1-.658.054,3.932,3.932,0,0,1-3.884-3.258,3.231,3.231,0,0,1-.046-0.545,3.271,3.271,0,0,1,2.747-3.213A2.862,2.862,0,0,1,46,18.286a2.767,2.767,0,0,1,2.733,2.292,0.7,0.7,0,0,1-1.373.229A1.377,1.377,0,0,0,46,19.665a1.423,1.423,0,0,0-.232.019,1.889,1.889,0,0,0-1.587,1.853,1.793,1.793,0,0,0,.028.316,2.543,2.543,0,0,0,2.511,2.107,2.592,2.592,0,0,0,.427-0.035,3.321,3.321,0,0,0,2.758-3.836A4.364,4.364,0,0,0,45.6,16.472a4.446,4.446,0,0,0-.732.061,5.608,5.608,0,0,0-4.71,5.5c0,0.08.006,0.16,0.01,0.241,0,0.007.009,0.012,0.011,0.02A6.916,6.916,0,0,0,51.6,25.019,6.768,6.768,0,0,0,51.6,15.377ZM21.267,27.808a1.8,1.8,0,0,1,1.037-.295c0.011,0,.018.011,0.029,0.012s0.018-.012.029-0.012a1.8,1.8,0,0,1,1.037.295,1.648,1.648,0,0,1,.546.647,2.221,2.221,0,0,1,.215.9V48.368a0.348,0.348,0,0,1-.7,0V29.353h0v-0.02l-0.006-.08a1.723,1.723,0,0,0-.056-0.278,1.07,1.07,0,0,0-.4-0.6,1.094,1.094,0,0,0-.64-0.171c-0.011,0-.018-0.011-0.029-0.012S22.316,28.2,22.3,28.2a1.1,1.1,0,0,0-.626.163,0.93,0.93,0,0,0-.315.361,1.566,1.566,0,0,0-.161.626V48.368a0.348,0.348,0,0,1-.7,0V29.352a2.244,2.244,0,0,1,.091-0.568A1.754,1.754,0,0,1,21.267,27.808Zm5.112,0a1.8,1.8,0,0,1,1.038-.295c0.011,0,.018.011,0.029,0.012s0.018-.012.029-0.012a1.8,1.8,0,0,1,1.037.295,1.653,1.653,0,0,1,.546.647,2.232,2.232,0,0,1,.215.9V48.368a0.348,0.348,0,0,1-.7,0V29.353h0v-0.02l-0.006-.08a1.78,1.78,0,0,0-.056-0.278,1.074,1.074,0,0,0-.4-0.6,1.092,1.092,0,0,0-.64-0.171c-0.011,0-.018-0.011-0.029-0.012s-0.018.012-.029,0.012a1.1,1.1,0,0,0-.627.163,0.935,0.935,0,0,0-.315.361,1.591,1.591,0,0,0-.161.626V48.368a0.348,0.348,0,0,1-.7,0V29.352a2.182,2.182,0,0,1,.091-0.568A1.755,1.755,0,0,1,26.379,27.808Zm5.112,0a1.8,1.8,0,0,1,1.037-.295c0.011,0,.018.011,0.029,0.012s0.018-.012.029-0.012a1.794,1.794,0,0,1,1.036.295,1.643,1.643,0,0,1,.546.647,2.227,2.227,0,0,1,.216.9V48.368a0.348,0.348,0,0,1-.7,0V29.353h0v-0.02l-0.006-.08a1.639,1.639,0,0,0-.055-0.278,1.074,1.074,0,0,0-.4-0.6,1.092,1.092,0,0,0-.639-0.171c-0.011,0-.018-0.011-0.029-0.012s-0.018.012-.029,0.012a1.1,1.1,0,0,0-.627.163,0.925,0.925,0,0,0-.315.361,1.617,1.617,0,0,0-.161.626V48.368a0.348,0.348,0,0,1-.7,0V29.352a2.252,2.252,0,0,1,.091-0.568A1.755,1.755,0,0,1,31.491,27.808Zm5.112,0a1.794,1.794,0,0,1,1.037-.295,0.041,0.041,0,0,0,.057,0,1.8,1.8,0,0,1,1.038.295,1.648,1.648,0,0,1,.546.647,2.221,2.221,0,0,1,.215.9V48.368a0.348,0.348,0,0,1-.7,0V29.353h0v-0.02l-0.006-.08a1.649,1.649,0,0,0-.056-0.278,1.07,1.07,0,0,0-.4-0.6A1.094,1.094,0,0,0,37.7,28.2a0.041,0.041,0,0,0-.057,0,1.1,1.1,0,0,0-.626.163,0.924,0.924,0,0,0-.315.361,1.593,1.593,0,0,0-.161.626V48.368a0.348,0.348,0,0,1-.7,0V29.352a2.266,2.266,0,0,1,.091-0.568A1.757,1.757,0,0,1,36.6,27.808Z" transform="translate(-5 -12)"/>
</svg>

